<?xml version="1.0" encoding="utf-8"?>
<!-- Generator: Adobe Illustrator 22.0.1, SVG Export Plug-In . SVG Version: 6.00 Build 0)  -->
<svg version="1.1" id="Layer_1" xmlns="http://www.w3.org/2000/svg" xmlns:xlink="http://www.w3.org/1999/xlink" x="0px" y="0px"
	 viewBox="0 0 1366 260.3" style="enable-background:new 0 0 1366 260.3;" xml:space="preserve">
<style type="text/css">
	.st0{fill:#FFFFFF;}
</style>
<path class="st0" d="M632.8,3.2L664.5,18l6.7,4.3l7.1,3.5l5.7,3.6l11.5,7.2l19.4,4.2l170.9-8.6l59-3l249.4-13.8l80-4.6l15.2-0.7
	l18.5-1.2l22.9-2.9l6.1-0.9l9.4,4.7l12,7.7l6.5,6l1.2,10.1l-11.9,1.7l-11.5-0.1l-10.8,1l-29.1,3.2l-101.2,13.1L1107.4,63l-69.7,7.5
	l-54,5.5L911,84.5L795.1,98.6l33.6,20.1l25.4,14.7l40.3,23.4l22.7,13.6l18.8,10.9l11.7,7.2l27.6,14.7l3.3-4.9l6.5-11.8l37-58.2
	l24.2-37.5l4.9-0.1l23.2,7.1l-40.8,122.8l13.8,0.7l74.2-7.2l13.5,6.6l13.7,10.6l3.6,13.2l-61.7,5l-58.9,9.8l-17.1,0.9l-27.8-0.7
	l-41.5-1.2l-44.7,1.6l-9.6-2.6l-16.6-8.9l-6.7-7.6l-0.7-8.1l68.3-4.1l-6.9-2.9l-20.7-8.3l-23.7-7.9l-57.4-18.2L789,179.7l-22.1-7.1
	l-27.4-6.6l-22.1-5l-21.4-6.7l-11-3.3l-7.4-2l-45.9-16.5l-13.9-5.6l-24.9-12.6l-14.2-8.1l-4.7-2.5l-4.7-1.4l-48.9-0.3l-62.2-1.4
	l-91.6-1.9l-51.3-0.5l-68.5-1.8L142.7,94l-97.2-3.5l-14.6,2L29,91.7L15,87l-8.5-6.1L0,69.9l6.6-7.1l11.7,1.5l58.4-2.7l75.2-2
	l154.6-4.5l191.6-6.2l2-0.3l1.6-4.2c0,0-2.1-3-3.1-6.2c-0.9-2.9-1-6-1-6.5s2.1-4.6,5.2-8c3.2-3.5,7.5-6.1,7.5-6.1l7.3-2.8l6.8-2.6
	l14.4-2.8l14-0.6L566,8.3l30-7.2l9.6-1.1h12.1l8.1,1L632.8,3.2L632.8,3.2z"/>
</svg>
