<svg version="1" xmlns="http://www.w3.org/2000/svg" width="3642.667" height="3642.667" viewBox="0 0 2732.000000 2732.000000"><path d="M1206 1106.3c-.3.3-3.2.7-6.5 1-3.3.3-10 1.5-15 2.7-4.9 1.2-9.7 2.3-10.5 2.5-.8.2-6.2 1.5-12 3-5.8 1.4-11.4 2.8-12.5 3-2.2.4-10.9 2.4-14 3.2-2.9.8-8.7 1.2-24.2 1.7-28.9 1.1-34.1 1.4-39.4 2.5-2.9.6-6.5 1.3-7.9 1.5-1.4.3-3.6.7-5 1-1.4.3-3.6.8-5 1.1-1.4.3-3.4.7-4.5.9-2 .4-21.9 7.8-26.5 9.9-5.9 2.6-20 14.4-20 16.6 0 .5-.3 1.1-.7 1.3-2.4 1-6.7 9.7-6.8 13.6-.2 5 3 15.5 5.8 19.4 1.8 2.4 1.9 3.1.7 7.2-.7 2.5-1.5 4.7-1.9 4.7-2.3.5-17.1 1.2-54.1 2.4-28.8.9-48 1.6-61 2.1-7.4.3-14.1.5-14.7.4h-2.5c-.7-.1-7.6.2-15.3.5-7.7.3-20.7.7-29 1-31.2.9-48.5 1.5-64.5 2.1-9.1.3-22.1.7-29 .9-6.9.2-20.4.7-30 1-27.6.9-47.3 1.5-63.8 2-8.4.2-15.7.7-16.2 1-.6.3-1 .1-1-.5s-.5-.8-1.1-.4c-.6.4-6.6.8-13.3 1-6.6.1-21.5.5-33.1.9-11.5.3-28 .8-36.5 1-16.5.5-42.1 1.2-66.5 2-14.1.4-22.3.7-70 2-17.7.5-33.5 1-66 2-7.1.2-22.7.7-34.5 1-19.7.5-30.4.7-78 2-9.1.3-24.8.7-35 1-21.4.5-44 1.3-59 2-5.8.3-15.4.8-21.5 1-6 .3-14.8.7-19.5.9-4.7.3-15.2.8-23.5 1.1-8.2.4-17.2.8-20 1-4.6.2-11-.4-21-2-2.2-.3-4.8-.6-5.7-.6-2.6 0-14.7 13.1-13.9 15 .3.9 3.2 6 6.3 11.3 5.2 8.7 6.6 10.2 14.2 15.8 7.4 5.3 10.6 6.8 24.7 11.6 10.9 3.7 17.2 5.3 19.3 5 1.7-.2 5.8-.8 9.1-1.2 3.3-.3 6.9-.9 8-1.2 1.1-.2 7.6-.5 14.5-.4 11.2 0 20.8.3 59.5 1.7 6.1.2 18.7.6 28 1 9.4.3 21.7.8 27.5 1 5.8.2 17.9.6 27 1 9.1.3 21.7.7 28 1 6.3.2 22.1.7 35 1 12.9.3 32.1.8 42.5 1 10.5.3 29.1.7 41.5.9 23.6.5 55.2 1.3 88 2.1 10.7.3 29.2.7 41 1 35.6.9 56.7 1.5 73 2 24.9.7 162.6 2.7 168 2.5 1.4-.1 3-.2 3.5-.1.6 0 9.6.3 20 .5 18.1.5 38 .9 99 2.2 14.9.3 34.2.7 43 .9 8.8.2 27.3.6 41 .9 13.8.3 36 .8 49.5 1.1 13.5.4 47.5.8 75.5 1 28.1.2 51.7.6 52.5.8.8.2 2.9.7 4.5 1.2 2.9.7 11.1 4.9 18.5 9.4 1.9 1.1 4.2 2.4 5 2.8.8.4 4.9 2.7 9 5.1 6.7 4 19.3 10.4 52.2 26.9 5.9 3 11.6 5.6 12.5 5.8 1 .2 3.3 1.1 5.1 2 1.8.9 3.8 1.8 4.5 1.9.7.1 2.8.9 4.7 1.8 4.3 1.8 22.6 8.5 62.5 22.8 11 4 23.6 8.6 28 10.2 4.4 1.6 8.7 3.1 9.5 3.3 3.2.6 10.7 2.7 14.7 4 2.3.8 5.2 1.6 6.5 1.9 1.3.2 5.2 1.4 8.8 2.6 3.6 1.2 7.2 2.3 8 2.5.8.2 3.5 1 6 1.8 2.5.9 10.6 3.4 18 5.7 7.4 2.3 14.6 4.5 16 5 1.4.5 3.9 1.1 5.5 1.4 5.1.8 8.9 1.6 10.4 2.2.8.3 9.4 2.2 19 4.4 9.7 2.2 19.1 4.4 20.9 4.9 1.7.5 3.2.8 3.2.6 0-.3 1.2 0 2.8.6 1.5.6 3.8 1.3 5.2 1.5 12.7 2.4 57.4 15 68 19.1.8.4 1.7.7 2 .8.3.1 5.2 1.6 11 3.4 5.8 1.8 16.4 5 23.5 7.2 7.2 2.2 14.1 4.4 15.5 4.9 3.1 1.1 17.1 5.3 18.5 5.6.6.1 4.5 1.4 8.8 2.8 4.3 1.4 9.7 3.1 12 3.8 5.2 1.5 4.9 1.4 6.7 2.1 1.4.5 21.9 7 23 7.2.3.1 5.2 1.7 11 3.5 5.8 1.9 10.8 3.5 11.3 3.6.4.1.9.3 1.2.4.3.1.8.3 1.3.4.4.1 3.6 1.1 7.2 2.3 3.6 1.1 15.3 4.9 26 8.3 20.1 6.4 60.3 19.6 63 20.7.8.3 2.1.7 2.8.9.7.1 3.3 1.2 5.8 2.3 2.4 1.2 5 2.1 5.7 2.1.7 0 1.7.4 2.3.8.5.5 3.2 1.7 5.9 2.7 2.8 1 6.6 2.5 8.5 3.3 1.9.9 4 1.7 4.5 1.8 1.5.3 22.8 9.4 23.3 9.9.2.2-.4.4-1.4.3-1.7 0-10 .4-30.4 1.7-3.6.3-11.4.7-17.5 1.1-6 .3-13.7.7-17 .9-3.3.2-10.5.7-16 1-5.5.3-12.7.7-16 1-7.5.6-27.6 1.7-33.2 1.9l-4.1.1.4 7.5c.4 5.8 1.1 8.3 2.9 11 4.2 6.1 13 14.5 16.6 16 1.8.8 3.6 1.6 3.9 1.9.3.3 2.3 1.6 4.5 2.7 2.2 1.2 7.4 3.9 11.5 6.1 4.1 2.2 10 4.7 13 5.6 9.4 2.8 14.5 4.1 15.2 3.9.6-.1 14-.6 48.5-1.7 6.2-.2 11.6-.5 12-.8 1-.5 60.6 0 77.8.7 61.4 2.4 113.3 2.5 125.5.1 1.3-.3 4-.7 6-1 2-.3 4.5-.7 5.5-.9 1.1-.2 4-.7 6.5-1 2.5-.3 5.6-.8 7-1.1 1.4-.3 3.6-.7 5-.9 9.3-1.4 11.5-1.8 12.2-2.2.4-.3 2.9-.7 5.5-.9 2.7-.2 5.9-.7 7.3-1 1.4-.3 3.6-.7 5-.9 7.7-1.2 10.8-1.7 13-2.2 1.4-.2 4.3-.7 6.5-1 5.4-.8 7.6-1.1 10.1-1.7 2.2-.5 6.5-1.3 13.2-2.3 2-.3 6.2-.9 9.2-1.4 3-.5 9.1-1.2 13.5-1.5 4.4-.3 9.8-.7 12-.9 2.2-.2 7.8-.7 12.5-1 4.7-.4 10.9-.9 13.9-1.2 6.1-.5 16.2-1.3 24.1-1.9 3-.2 8.9-.7 13-1 10.5-1 14.2-1.3 24-2 4.7-.3 9.4-.8 10.5-1 1.1-.2 2.3-.4 2.7-.4.3-.1-.1-2.2-.9-4.9-.8-2.6-2.4-8.4-3.6-13-2.1-8-2.3-8.4-7.7-12.5-3-2.3-9.3-7.1-14-10.8-5.1-3.9-13.6-9-21.5-12.8-13.1-6.5-14-6.7-23.5-5.6-1.9.2-6.6.7-10.5 1-3.8.3-8.6.8-10.5 1-9.9 1-15 1.5-19.5 1.9-2.7.3-7.7.8-11 1.1-3.3.3-8 .7-10.5.9-2.5.3-6.5.7-9 1-5 .6-15.2 1.6-22 2.1-2.5.2-7 .6-10 .9-6.8.8-12.5 1.4-21 2.2-7.3.8-42 .8-42 0 0-.1 2.5-7.5 5.6-16.6 3-9.1 5.7-17.2 5.9-18 .2-.8 6.1-18.6 13.1-39.5 6.9-20.9 12.7-38.5 12.9-39 .2-1 .4-1.6 2.1-6 .4-1.1.8-2.5 1-3 .1-.6 6.6-20.1 14.4-43.5 7.8-23.4 14.3-43.2 14.5-44 .2-.8 2-6.2 4-12s3.8-11.2 4-12c.2-.8 1.1-3.5 1.9-5.9 2.1-5.7 2-7.1-.4-7.1-1.1 0-2.8-.4-3.8-1-1.4-.8-12.6-4.2-26.2-8.1-1.9-.6-3.9-1.2-4.5-1.3-.5-.2-1.3-.4-1.7-.5-.4-.1-2.5-.8-4.5-1.5-2.1-.7-5.8-1.2-8.2-1.1-5 .2-4.3-.6-13.6 14-3.6 5.5-6.9 10.5-7.5 11.2-.5.7-1 1.4-1 1.7 0 .3-4.2 7-9.3 14.8-5.1 7.9-11.8 18.1-14.7 22.8-3 4.7-5.8 8.6-6.2 8.8-.5.2-.8.7-.8 1.2 0 .8-19 31.4-21 33.7-.5.7-1.5 2.4-2.2 3.8-.6 1.4-1.5 2.5-2 2.5-.4 0-.8.4-.8 1 0 .8-4.7 8.4-11 18-.6.8-5.1 8-10.1 16s-10 15.7-11 17.2c-1.1 1.5-1.9 3.1-1.9 3.7 0 .5-.3 1.1-.8 1.3-1.1.5-13.2 19.9-19.7 31.8-3.2 5.8-7.4 13.1-9.4 16.2l-3.6 5.6-7.2-3.9c-7.1-3.8-12.3-6.6-30.8-16.4-4.9-2.7-9.3-5.3-9.7-5.9-.4-.6-.8-.8-.8-.4 0 1-6.8-2.7-15.7-8.5-2.3-1.5-4.4-2.7-4.8-2.7-.3 0-2.1-1.1-3.8-2.4-1.8-1.3-5.3-3.5-7.8-4.9-7.4-4-9.4-5.2-9.9-5.7-.4-.4-2.9-1.8-11.5-6.4-1.1-.6-2.2-1.3-2.5-1.6-.8-.8-4.3-2.9-6.5-3.9-1.1-.6-8.3-4.8-16-9.5-7.7-4.7-15.9-9.6-18.2-10.8-2.4-1.2-4.3-2.6-4.3-3 0-.4-.6-.8-1.3-.8-.7 0-3.6-1.6-6.6-3.5-2.9-1.9-5.4-3.5-5.6-3.5-.1 0-6.5-3.7-14.1-8.1-14.9-8.8-18.4-10.8-25.4-14.7-2.5-1.4-6.1-3.6-8-4.9-1.9-1.2-3.7-2.3-4.1-2.3-.3 0-5.8-3.2-12.3-7-6.4-3.9-12.1-7-12.6-7-.6 0-1-.5-1-1 0-.6-.4-1-1-1-.5 0-4.4-2-8.6-4.5-4.1-2.5-7.8-4.5-8.1-4.5-.4 0-2-1-3.7-2.3-1.7-1.2-4.2-2.8-5.6-3.5-1.4-.6-3.2-1.6-4-2.1-.8-.6-8.2-4.9-16.5-9.7-12.9-7.4-34.6-20.3-39.5-23.4-.8-.5-4.4-2.6-7.9-4.7s-7.1-4.3-8-4.8c-.9-.6-4.9-3-8.9-5.4-4.1-2.3-7.2-4.4-7-4.6.2-.2 3-.6 6.3-1s7.1-.8 8.5-1c4.9-.7 10.6-1.4 16-2 3-.3 6.9-.8 8.5-1 8.2-1.2 19.7-2.6 23.6-3 4.4-.4 10.4-1.1 16.9-2 1.9-.2 6-.7 9-1 3-.4 6.6-.8 8-1 1.4-.3 4.8-.7 7.6-1 8.2-.8 13.8-1.5 15.4-2 .8-.2 4.9-.7 9-1 4.1-.4 8.4-.9 9.5-1.1 1.1-.2 4.5-.6 7.5-1 3-.3 6.6-.7 8-.9 3.1-.5 13.8-1.8 16.5-2 4.3-.4 16.1-1.8 18-2.1 2.6-.5 9.2-1.4 13.5-1.8 1.9-.2 6.2-.7 9.5-1.1 3.3-.4 7.1-.9 8.5-1 4-.5 13.2-1.6 16.5-2 1.7-.2 5.9-.7 9.5-1 3.6-.4 7.3-.9 8.3-1.1 1-.2 4.6-.6 8-1 3.4-.3 7.3-.8 8.7-.9 1.4-.2 5.2-.6 8.5-1 3.3-.3 7.1-.8 8.5-1.1 1.4-.3 5-.7 8-.9 3-.3 7.1-.7 9-1 5.1-.7 10.8-1.4 17-2 3-.3 6.6-.7 8-1 1.4-.2 5.2-.7 8.5-1 3.3-.3 7.4-.8 9-1 1.7-.2 5.6-.7 8.9-1 3.2-.4 6.8-.8 8-1 1.1-.2 4.8-.6 8.1-.9 3.3-.3 7.4-.8 9-1 1.7-.2 6.2-.7 10-1.1 3.9-.3 8.8-.8 11-1.1 2.2-.2 6.3-.6 9-.9 2.8-.2 7-.6 9.5-.9 2.5-.3 7.4-.8 11-1.2 11.9-1.1 13.5-1.3 18.5-1.8 12.2-1.3 15.4-1.6 21-2.1 3.3-.3 7.6-.8 9.5-1 1.9-.2 5.8-.7 8.5-.9 8-.8 14.7-1.6 19.5-2.2 2.5-.3 6.1-.7 8-.9 13.5-1.3 17-1.6 20.5-2.1 4.8-.6 9.5-1.1 19-2 3.9-.3 7.8-.8 8.8-1 1-.2 4.8-.6 8.5-1 3.7-.3 8.1-.8 9.7-1 1.7-.2 5.7-.6 9-.9 3.3-.2 7.6-.7 9.5-1 1.9-.3 6-.7 9-1 11.1-1.1 13.6-1.4 17-1.9 1.9-.3 6.7-.8 10.5-1.2 3.9-.3 8.1-.8 9.5-.9 7-.9 12-1.5 17-2 3-.3 7.1-.7 9-1 4.8-.6 13.7-1.6 18.3-2.1 2-.2 5.4-.6 7.5-.8 2-.2 6.9-.7 10.7-1.1 8.4-.9 10.8-1.2 16-1.9 2.2-.3 6.5-.8 9.6-1 3.1-.3 6.9-.7 8.5-1 1.6-.3 5.8-.8 9.4-1.1 3.6-.3 7.9-.8 9.5-1 3.7-.5 13.8-1.6 18.5-2.1 8.6-.8 13.7-1.3 17-1.9 3.6-.5 12.1-1.5 17.5-1.9 1.7-.2 4.6-.6 6.5-.9 1.9-.4 5.8-.9 8.5-1.2 2.8-.2 5.9-.7 7-.9 1.1-.2 4.7-.7 8-1 3.3-.4 7.1-.9 8.5-1.1 1.4-.2 4.8-.7 7.5-1 2.8-.3 8.2-1 12-1.5 3.9-.6 8.8-1.2 11-1.4 2.2-.2 5.6-.7 7.5-1 3.8-.6 11.7-1.6 16.5-2.1 1.7-.2 5-.6 7.5-1 2.5-.3 6.5-.8 9-1.1 2.5-.3 5.6-.7 7-.9 1.4-.2 4.5-.6 7-1 2.5-.3 6.3-.8 8.5-1.2 2.2-.3 5.1-.7 6.5-.8 3.6-.4 13.1-1.6 16-2 1.4-.3 5-.7 8-1.1 9.9-1.1 11.4-1.3 22.5-2.8 13.4-1.8 19.6-2.6 25.5-3.1 2.5-.3 6.8-.7 9.5-1 2.8-.3 7-.8 9.5-1 2.5-.3 6.3-.7 8.5-1 7.7-.9 21.6-2.5 28.5-3.1 2.5-.3 12.4-.6 22-.8 9.6-.2 18.4-.6 19.5-.9 1.7-.4 12.2-1.9 15-2.1 1.1-.1 1.1-1.8.1-12.6l-.7-7.5-6.2-5.9c-3.4-3.2-10.9-8.9-16.7-12.7-5.8-3.7-11-7.1-11.5-7.6-1.8-1.5-20.3-10.4-22.1-10.7-1-.2-3.6.1-5.8.5-2.3.4-6.8 1.1-10.1 1.4-3.3.4-6.7.9-7.5 1-.8.2-4.4.6-8 1-3.6.4-7.2.8-8 1-1.5.3-11.7 1.5-17.5 2.1-8.7.9-21.5 1.7-45.5 2.9-22.2 1.1-46.2 2.4-55 3-4.1.3-12.4.7-18.5 1.1-6 .3-14.1.7-18 1-11.4.7-24.5 1.4-32.5 1.9-4.1.2-12.4.7-18.5 1-6 .3-14.4.8-18.5 1.1-4.1.2-11.1.6-15.5.9-4.4.2-12.5.6-18 1-5.5.3-14 .8-19 1-11.4.6-24.6 1.3-35.5 2-12.1.7-33.8 1.9-55 3-5.2.3-13.1.7-17.5 1-4.4.3-12.3.7-17.5 1-10.6.5-23.2 1.2-36 2-4.7.3-13.2.8-19 1.1-11 .5-17.7.9-37.5 2-6.6.4-14.4.8-17.2.8-2.9.1-5.3.3-5.3.6s-3.7.5-8.3.6c-7.5.1-20.7.7-39.7 1.9-4.1.3-12 .7-17.5 1-10.5.5-19.4 1-36 2-10.3.6-18.5 1-36 2-5.5.3-14.3.8-19.5 1.1-5.2.3-12.9.7-17 .9-4.1.2-12 .6-17.5 1-5.5.3-13.8.8-18.5 1-4.7.2-12.5.7-17.5.9-4.9.3-14.4.8-21 1.1-6.6.3-15.8.8-20.5 1-20.5 1.1-40.6 2.2-58 3-5.8.3-15.2.8-21 1.1-15.3.8-24 1.3-37.5 1.9-6.6.3-15.4.7-19.5.9-4.1.3-13.3.7-20.5 1.1-7.1.4-16.4.8-20.5 1.1-4.1.2-12.7.7-19 .9-27.7 1.3-44.3 2.1-60 3-5.2.3-14.2.7-20 1-5.8.3-14.3.7-19 1-4.7.3-14.1.7-21 1.1-6.9.3-16.1.7-20.5.9-4.4.3-12.9.7-19 1-6 .3-15 .7-20 1-4.9.3-14.6.8-21.5 1.1-6.9.3-14.5.6-16.9.8-2.5.1-7-.3-10-1-3.1-.7-6.8-1.5-8.3-1.8-1.6-.4-4-.8-5.5-1.2-1.6-.3-5.6-1.1-8.9-1.9-3.4-.8-7.4-1.6-9-1.9-1.5-.3-3-.9-3.3-1.3-.8-1.1-11-7.3-12-7.3-.4 0-1.6-.9-2.6-2s-2.4-2-3.2-2c-.7 0-1.3-.4-1.3-.9s-.8-1.1-1.7-1.5c-1-.3-3.8-1.9-6.3-3.5s-8.3-4.8-13-7.2c-4.7-2.3-10.5-5.7-13-7.4-5.6-3.9-32.6-17.1-34.2-16.7-.3.1-1.2-.5-1.8-1.3-.7-.8-1.8-1.5-2.4-1.5-.6 0-3.8-1.3-7.1-2.9-21.1-10.3-33.4-15.2-42.5-16.8-3.8-.7-41.4-1.6-42-1z"/></svg>